<svg width="18" height="19" viewBox="0 0 18 19" fill="none" xmlns="http://www.w3.org/2000/svg">
<rect width="18" height="19" fill="#F5F5F5"/>
<g clip-path="url(#clip0_0_1)">
<path fill-rule="evenodd" clip-rule="evenodd" d="M6 4.5C6 3.70435 6.31607 2.94129 6.87868 2.37868C7.44129 1.81607 8.20435 1.5 9 1.5C9.79565 1.5 10.5587 1.81607 11.1213 2.37868C11.6839 2.94129 12 3.70435 12 4.5C12 5.29565 11.6839 6.05871 11.1213 6.62132C10.5587 7.18393 9.79565 7.5 9 7.5C8.20435 7.5 7.44129 7.18393 6.87868 6.62132C6.31607 6.05871 6 5.29565 6 4.5ZM9 0.5C7.93913 0.5 6.92172 0.921427 6.17157 1.67157C5.42143 2.42172 5 3.43913 5 4.5C5 5.56087 5.42143 6.57828 6.17157 7.32843C6.92172 8.07857 7.93913 8.5 9 8.5C10.0609 8.5 11.0783 8.07857 11.8284 7.32843C12.5786 6.57828 13 5.56087 13 4.5C13 3.43913 12.5786 2.42172 11.8284 1.67157C11.0783 0.921427 10.0609 0.5 9 0.5ZM14.58 12.65C15.7 13.47 16.41 14.89 16.49 17.5H1.51C1.59 14.9 2.3 13.47 3.41 12.65C4.66 11.75 6.5 11.5 9 11.5C11.5 11.5 13.35 11.76 14.58 12.65ZM9 10.5C6.5 10.5 4.35 10.74 2.83 11.85C1.27 12.98 0.5 14.93 0.5 18V18.5H17.5V18C17.5 14.93 16.73 12.98 15.17 11.85C13.65 10.75 11.5 10.5 9 10.5Z" fill="black"/>
</g>
<defs>
<clipPath id="clip0_0_1">
<rect width="18" height="19" fill="white"/>
</clipPath>
</defs>
</svg>
