<svg width="900" height="600" viewBox="0 0 900 600" fill="none" xmlns="http://www.w3.org/2000/svg">
<rect width="900" height="600" fill="#F5F5F5"/>
<g clip-path="url(#clip0_0_1)">
<path d="M0 0H900V600H0V0Z" fill="#006C35"/>
<path d="M581.597 446.007H569.097C567.708 447.83 565.538 450 564.323 450C562.847 450 558.854 445.92 558.854 444.444C558.854 443.316 560.764 441.146 562.5 439.757V436.372H335.937C306.076 436.372 291.233 436.111 281.25 426.128H562.5V422.743C560.851 421.441 558.854 419.184 558.854 418.056C558.854 416.58 562.847 412.5 564.323 412.5C565.799 412.5 569.792 416.58 569.792 418.056C569.792 419.184 567.795 421.441 566.146 422.743V426.128H604.34C614.583 426.128 618.75 426.997 618.75 436.372C618.75 446.354 616.059 448.177 611.806 448.177C610.33 448.177 607.899 448.09 606.076 446.007H591.233C590.84 446.644 590.173 447.188 589.315 447.572C588.457 447.955 587.448 448.16 586.415 448.16C585.382 448.16 584.373 447.955 583.515 447.572C582.657 447.188 581.99 446.644 581.597 446.007ZM591.233 442.882H604.34C603.646 440.972 603.646 438.976 604.34 436.372H566.146V439.757C567.101 440.451 568.403 441.927 569.097 442.882H581.597C581.99 442.245 582.657 441.7 583.515 441.317C584.373 440.934 585.382 440.729 586.415 440.729C587.448 440.729 588.457 440.934 589.315 441.317C590.173 441.7 590.84 442.245 591.233 442.882Z" fill="white"/>
<path d="M612.847 286.806C613.715 287.847 614.236 288.802 612.76 290.538C611.372 291.753 610.417 292.448 608.941 293.663C608.333 294.705 607.899 296.354 609.896 296.875C613.715 297.917 620.747 293.403 620.747 293.316C622.222 292.274 621.701 290.365 621.615 290.365C620.747 289.497 618.924 290.017 617.708 289.844C617.101 289.844 616.753 288.715 617.622 287.066C618.403 286.024 618.75 285.417 619.271 284.201C619.792 282.986 619.271 282.118 617.188 281.424C615.017 281.076 614.149 281.25 611.806 281.424C610.503 281.684 610.069 282.292 609.809 283.767C609.896 286.024 611.372 285.851 612.847 286.806ZM596.354 233.16C595.139 234.809 594.271 236.111 596.615 237.413C599.045 238.628 602.691 242.014 601.128 245.833C600.26 248.785 601.128 251.128 603.819 246.875C606.597 242.448 604.427 237.153 601.736 233.767C599.392 230.816 597.83 231.424 596.354 233.16ZM669.444 172.569C672.743 175.434 674.566 174.566 672.483 169.705C670.052 164.844 667.708 159.722 665.538 155.122C663.194 150.26 662.587 151.389 659.896 154.861C656.858 158.247 656.597 160.851 657.726 162.847C663.455 208.247 666.146 231.944 666.753 245.66C667.969 265.625 662.847 276.823 642.448 289.67C635.851 293.924 628.385 298.785 644.271 295.052C659.115 291.493 675 282.118 675 246.267C675 219.271 668.75 190.365 669.444 172.569ZM645.139 163.368C643.316 166.233 643.663 166.84 645.747 169.965C647.83 173.437 649.653 179.687 649.653 184.549C649.653 189.41 651.476 188.802 652.344 184.288C653.299 179.948 652.951 171.441 650.26 165.451C647.569 159.115 646.615 161.372 645.139 163.368ZM662.587 257.899C661.979 253.906 660.764 249.913 655.382 242.274C650 234.809 645.139 227.951 640.365 221.354C638.889 204.253 636.719 185.937 636.719 176.302C639.149 178.559 640.972 176.302 639.757 172.569C638.542 168.837 636.111 158.854 634.375 154.601C632.812 150.521 631.076 151.389 628.646 155.122C626.562 158.854 625.087 160.59 626.562 163.368C627.17 179.948 629.514 196.007 632.292 210.503C627.431 204.253 622.917 198.264 618.75 192.795C618.49 186.545 617.882 180.295 617.535 173.958C620.226 175.955 621.441 175.434 619.965 171.701C618.75 167.708 615.451 159.375 613.976 155.729C612.413 151.997 611.545 151.997 609.462 154.861C606.163 159.722 605.208 163.108 607.986 167.708C608.247 171.701 608.854 175.955 609.115 179.687C606.424 176.302 604.08 172.83 601.91 169.705C604.601 171.094 606.771 168.837 603.733 166.233C601.042 163.715 595.313 159.375 592.969 156.25C590.278 153.125 587.847 153.125 587.847 155.99C587.847 158.854 588.108 161.372 587.847 163.976C587.24 166.233 587.24 168.576 590.799 172.569C597.743 180.556 604.34 188.802 610.677 196.528C613.021 225.087 614.583 243.403 613.976 254.774C613.628 261.632 611.285 265.625 607.378 266.753C603.472 268.229 599.566 265.625 595.92 260.503C589.323 251.389 586.979 253.125 581.858 261.111C576.997 268.49 573.698 274.826 571.007 280.208C568.663 285.33 564.41 289.931 560.503 283.073C556.944 276.215 556.337 268.49 556.597 263.108C556.597 257.639 555.729 253.385 553.646 261.979C548.264 283.073 551.563 287.674 557.552 292.187C565.017 298.524 567.448 299.045 571.354 293.663C579.167 283.333 581.25 274.219 585.764 269.097C589.323 265.104 589.323 268.229 591.146 270.226C595.66 275.608 599.566 277.604 605.816 278.472C612.153 279.601 623.524 274.479 622.656 254.514C622.049 242.535 621.181 226.215 619.965 208.854C625.955 216.84 631.337 223.958 635.59 229.687C637.674 241.059 638.889 251.389 638.281 259.635C637.674 269.097 639.757 269.097 641.84 259.375C642.448 255.382 642.448 247.049 641.58 237.066C649.653 247.396 654.427 254.253 657.726 259.115C661.372 265.104 663.455 270.226 662.587 257.899ZM580.295 235.417C580.295 233.42 581.25 232.812 584.809 229.948C587.847 227.691 596.267 221.962 598.958 219.358C601.649 216.84 603.733 214.497 604.34 217.708C604.601 220.833 605.208 221.962 601.91 223.698C598.611 225.087 589.931 230.208 587.24 232.205C584.201 234.549 580.295 237.413 580.295 235.417ZM581.25 200.26C580.642 202.865 576.997 202.865 577.344 200C577.604 197.135 577.344 197.656 577.344 195.399C576.997 193.142 580.035 191.667 581.51 193.663C583.333 195.66 586.372 201.997 587.24 204.253C588.455 206.51 589.063 205.99 589.063 202.865C588.715 199.132 588.108 195.66 588.455 193.142C588.715 191.667 589.67 189.931 591.406 188.542C593.576 187.153 594.705 186.806 595.66 189.41C596.267 191.667 598.003 191.927 597.135 194.01C595.92 196.788 593.229 191.146 591.406 195.139C590.538 198.003 591.406 205.99 591.146 208.854C591.146 211.372 589.931 215.104 587.847 210.851C586.372 207.986 584.201 203.125 581.25 200.26ZM560.503 177.083C564.757 179.08 569.271 180.295 565.972 175.434C562.587 170.833 559.896 163.108 558.16 157.378C555.99 151.736 555.469 151.997 552.083 156.858C547.049 164.236 551.563 171.441 552.691 179.948C556.944 210.503 561.111 241.667 562.326 249.913C563.542 259.115 565.017 265.104 562.587 275.087C561.719 278.212 562.934 279.08 565.017 275.347C573.438 260.243 567.708 247.049 566.84 238.542C565.365 225.347 560.503 190.538 559.635 176.562M539.844 175.694C542.188 177.691 544.965 177.691 543.403 173.437C541.927 169.097 540.712 163.976 539.236 159.115C537.76 154.253 536.806 153.125 534.983 155.382C532.899 157.986 531.424 158.854 529.948 160.59C528.385 161.979 528.125 165.104 529.948 167.969C536.545 211.111 536.806 230.208 537.76 246.267C538.628 262.24 541.059 269.618 530.556 280.469C519.097 292.187 512.24 295.052 507.118 296.181C501.389 297.743 499.045 300 505.208 300C525.347 300 527.344 294.618 535.59 285.937C542.274 278.906 545.486 269.965 544.965 248.785C544.358 211.632 538.889 195.66 539.844 175.694ZM464.497 284.809C467.535 283.073 469.01 281.684 471.354 280.816C473.785 279.601 475.608 279.948 473.785 284.809C471.962 290.451 472.917 292.187 476.823 290.799C480.382 289.67 482.465 288.194 485.503 287.066C488.194 285.937 491.233 285.937 486.979 289.062C483.681 291.667 478.906 295.052 476.215 295.66C470.226 297.049 467.188 294.792 468.403 290.191C469.618 285.937 470.486 284.201 466.927 285.677C462.674 287.326 463.021 285.677 464.497 284.809ZM512.847 187.674C513.976 191.146 515.538 192.795 516.406 188.542C517.014 184.809 518.229 183.681 518.837 187.674C519.705 191.667 522.135 191.146 522.743 187.413C523.611 183.681 524.826 181.684 525.434 185.677C526.042 189.931 525.694 191.406 525.087 192.795C524.826 194.01 522.396 195.399 520.573 193.663C518.49 191.927 517.882 191.927 516.406 193.403C513.108 196.267 511.892 194.271 511.285 190.278C511.024 186.806 512.24 185.417 512.847 187.674ZM532.899 259.635C530.208 246.788 517.882 226.215 499.566 199.392C499.045 192.274 498.698 185.677 498.698 179.687C501.389 182.552 503.212 180.816 502.344 177.083C500.521 170.573 497.83 165.104 494.531 157.726C493.316 154.601 490.017 153.733 488.542 158.247C486.372 163.715 486.111 164.844 488.802 168.576C488.542 172.569 490.017 179.427 490.625 185.677C487.326 181.076 483.073 175.434 479.774 170.573C484.896 172.569 487.934 171.094 483.42 166.58C478.906 161.719 472.569 156.858 468.663 153.385C464.757 150 463.021 152.257 463.628 155.382C463.889 158.594 464.236 160.851 463.889 163.368C463.628 165.972 464.497 167.708 468.403 169.097C476.215 178.819 484.028 188.802 491.233 199.132C492.101 207.639 493.924 217.101 494.792 224.826C497.222 243.056 500.781 266.753 497.83 277.083C495.399 284.809 497.83 288.194 501.736 276.476C505.295 264.757 504.948 253.646 502.604 236.198C501.649 229.427 501.389 220.833 500.521 212.847C513.108 231.337 524.479 249.045 529.601 261.372C532.292 267.969 534.722 269.358 532.899 259.635ZM510.417 155.382C509.201 157.726 508.333 159.375 510.677 161.111C513.108 162.847 516.753 167.448 515.191 172.569C514.323 176.562 515.191 179.687 517.882 173.958C520.573 167.969 518.49 160.851 515.799 156.25C513.368 152.257 511.892 153.125 510.417 155.382ZM421.615 217.708C421.007 221.701 421.875 224.219 423.351 226.215C424.913 228.212 427.865 227.951 428.819 225.694C429.688 223.09 430.295 222.83 432.118 224.826C434.201 226.823 441.059 225.087 437.76 215.104C436.285 211.111 435.677 211.979 435.677 216.493C435.677 223.698 433.247 223.698 430.556 216.84C429.688 214.236 428.472 214.236 428.212 217.708C428.212 224.219 425.174 225.087 423.351 218.49C422.743 215.712 422.222 213.368 421.615 217.708ZM463.021 227.951C469.271 226.562 465.712 225.955 461.458 223.351C457.031 220.833 455.208 220.833 455.469 223.698C455.816 225.347 455.816 227.083 456.424 229.34C458.507 228.819 460.59 228.559 463.021 227.951ZM450.694 213.976C455.469 207.378 463.281 209.375 472.309 215.365C481.337 221.354 477.691 230.816 469.01 235.677C466.927 236.806 464.236 237.934 460.851 239.062C461.806 241.059 460.59 241.667 457.899 239.931C450.087 242.535 439.844 246.267 432.726 249.913C441.406 250.521 477.431 249.913 484.635 249.045C491.84 248.524 490.625 249.653 488.542 255.642C486.372 261.372 484.028 260.764 478.038 261.632C468.403 263.368 454.253 267.361 444.097 271.354C433.854 275.347 437.5 282.465 448.003 286.198C456.076 288.194 455.208 289.062 453.733 293.663C452.517 297.917 452.517 299.045 442.622 297.656C418.316 293.924 409.549 281.076 405.642 271.094C390.712 291.319 375.955 302.517 362.153 299.045C355.295 297.656 351.997 291.667 351.389 284.201C341.753 288.455 330.642 292.187 316.233 296.181C312.934 297.309 310.243 295.92 314.757 293.924C324.306 289.323 339.323 281.684 351.649 273.351C352.865 268.229 355.556 261.111 358.247 255.903C359.722 252.778 360.677 253.906 360.677 256.51C360.677 258.507 360.069 263.628 360.33 267.361C362.5 265.625 365.451 263.976 366.927 262.5C375.347 255.382 384.635 250.781 378.385 239.41C375.694 234.201 373.524 230.556 372.656 228.212C367.274 226.215 368.75 223.351 371.181 218.49C373.524 213.715 374.479 212.5 379.253 217.969C386.198 225.694 387.066 229.08 382.292 228.559C389.757 246.788 387.934 256.25 376.302 267.101C370.833 272.483 365.191 276.823 358.594 280.208C357.986 285.069 360.069 289.931 369.618 288.455C382.292 286.806 396.354 271.094 402.344 259.115C399.653 249.045 393.663 231.076 390.104 221.962C388.281 217.361 390.104 215.365 391.58 211.632C393.403 207.986 394.271 205.642 396.354 210.851C398.438 215.712 405.035 227.951 408.073 242.535C411.372 257.118 410.764 269.618 418.576 276.476C422.222 279.601 426.649 281.684 431.51 282.812C427.865 273.09 435.417 265.625 445.313 262.24C439.323 256.771 429.948 257.639 419.444 257.118C411.719 256.771 412.587 255.903 414.67 249.392C416.753 242.795 419.184 241.927 424.913 239.67C432.726 236.806 440.451 233.941 448.611 231.684C443.49 224.566 446.788 219.358 450.694 213.976ZM412.847 155.382C410.764 157.378 410.764 157.726 412.587 160.243C414.41 162.24 417.101 168.576 416.146 175.087C415.885 177.951 416.493 180.816 417.969 175.694C419.184 170.573 418.837 163.368 417.361 159.115C415.885 154.861 414.063 153.733 412.847 155.382ZM372.049 166.58C367.274 179.427 367.535 191.667 377.431 202.257C383.16 208.247 387.326 205.382 389.757 198.785C392.448 192.535 394.271 186.285 396.094 181.944C397.83 177.691 399.392 178.559 399.045 182.552C398.177 190.538 397.569 203.385 405.99 208.247C414.41 213.108 427.257 204.861 431.771 196.267C445.313 213.368 457.292 205.382 458.767 188.802C459.115 183.681 456.684 172.569 455.208 169.444C453.733 165.972 454.601 165.972 456.684 167.708C458.767 169.705 462.413 170.833 460.59 165.104C458.507 159.722 456.076 156.597 452.778 153.993C449.826 151.389 449.219 152.865 448.003 154.861C446.788 156.858 447.049 157.378 445.313 158.854C443.49 160.59 443.75 161.372 445.313 164.583C450.347 177.083 455.208 195.399 447.049 197.135C439.583 198.524 434.809 183.073 434.462 176.302C434.201 167.101 432.986 159.375 431.163 154.601C429.861 151.476 429.08 150 428.385 150C427.17 150 425.434 154.948 424.306 156.858C423.09 158.854 424.306 159.375 425.174 163.368C429.688 183.42 429.08 192.535 419.444 197.656C409.896 203.125 404.774 198.003 404.774 191.667C404.514 185.417 404.514 177.691 405.382 171.962C405.99 166.233 407.465 165.451 405.382 162.587C403.299 159.375 401.476 160.59 398.785 164.236C392.795 172.222 386.806 185.677 384.635 191.927C382.552 198.524 378.385 196.267 375.347 190.799C372.049 184.288 372.396 172.569 373.524 167.969C374.74 163.368 374.132 161.372 372.049 166.58ZM359.722 161.719C360.33 159.983 358.854 158.247 357.639 160.851C356.771 162.847 356.424 164.236 358.247 165.451C358.854 164.236 359.462 162.847 359.722 161.719ZM352.517 159.115C356.163 150.26 368.142 151.389 364.844 162.847C364.583 164.583 363.628 166.84 362.5 169.097C364.236 171.441 363.368 174.306 359.722 173.698C355.816 179.687 348.351 186.285 335.417 191.667C329.427 194.271 328.559 192.274 333.073 189.67C341.753 184.288 349.826 177.691 354.948 170.833C351.042 167.708 351.042 163.108 352.517 159.115ZM350.434 190.799C346.875 195.139 344.184 201.389 349.219 205.122C351.997 207.378 357.639 204.861 359.722 200.521C361.892 196.007 360.938 195.399 357.378 199.132C352.257 204.514 347.135 199.653 352.517 192.274C356.163 187.153 354.08 185.937 350.434 190.799ZM342.361 253.646C342.969 255.642 342.622 260.243 341.753 262.24C340.538 264.757 341.753 265.972 343.576 262.76C345.313 259.375 346.528 255.382 345.66 251.389C345.313 248.524 345.313 247.656 342.622 246.528C339.67 245.399 338.715 247.049 337.847 249.392C336.632 252.257 338.108 255.382 342.361 253.646ZM296.094 234.809C290.712 236.198 289.844 234.201 290.104 231.076C290.451 227.951 290.712 227.083 294.358 228.559C295.833 229.08 297.656 231.076 299.479 233.681C298.264 233.941 297.049 234.549 296.094 234.809ZM300.608 221.962C295.226 216.84 290.712 216.493 286.198 222.83C282.031 228.819 282.292 230.208 282.639 235.677C282.899 241.059 281.771 243.056 286.198 244.531C290.451 245.92 292.274 245.399 294.965 244.531C297.049 243.924 300 243.056 303.038 241.927C303.646 244.792 303.299 247.917 301.563 250.26C290.451 262.76 273.351 271.962 265.799 263.628C261.632 259.115 259.809 251.91 261.024 243.403C262.24 236.198 259.809 239.41 258.941 241.927C256.25 250.26 255.295 262.24 258.941 268.229C264.063 276.476 272.135 280.208 285.069 274.826C297.917 269.358 310.503 259.635 309.983 246.267C309.983 243.663 309.635 241.406 309.635 239.67C310.851 239.062 312.934 237.674 314.41 237.066C314.757 241.667 314.149 247.396 314.41 251.91C315.017 266.493 309.028 270.747 303.646 274.826C296.094 280.469 285.938 284.201 277.257 285.677C256.51 288.455 251.736 275.955 251.997 259.115C251.997 256.51 253.212 254.774 253.212 251.042C252.951 243.924 251.997 245.052 249.653 252.257C247.483 259.115 244.792 275.087 251.736 288.194C258.941 301.389 283.247 297.656 302.17 289.062C320.747 280.469 322.83 264.236 321.962 247.917C321.962 243.663 321.615 239.062 321.354 234.201C321.962 233.941 322.222 233.42 322.569 233.073C325.26 241.406 337.847 239.062 341.753 234.201C343.837 231.944 343.837 231.684 345.66 234.201C348.351 237.934 357.639 239.062 360.069 233.941C362.153 228.559 361.892 223.351 361.285 219.358C360.677 215.365 359.722 215.712 357.031 217.708C354.08 219.965 356.424 220.226 356.771 223.09C357.986 233.941 348.09 233.073 346.875 221.962C346.267 215.104 345.052 217.708 344.184 220.833C339.931 234.201 327.604 236.806 328.819 221.354C329.167 216.84 326.128 218.229 324.653 219.965C323.177 221.094 321.962 222.569 320.486 223.351C319.531 210.851 318.663 196.528 317.101 179.427C320.747 183.681 324.045 178.819 321.615 173.958C319.878 170.226 317.101 161.979 315.365 157.378C313.802 152.865 312.934 154.253 309.028 157.986C305.469 161.979 306.076 162.847 307.813 166.84C307.205 171.701 308.16 176.562 309.375 186.545C310.243 193.663 312.674 208.507 313.802 227.344C312.066 228.212 309.375 229.948 307.552 230.816C306.076 227.691 303.906 225.087 300.608 221.962ZM236.111 258.247C236.372 261.111 236.372 263.108 236.372 264.236C236.372 266.233 235.243 268.229 234.635 270.747C230.99 283.073 236.372 289.062 239.41 284.462C242.101 279.948 243.576 280.469 243.316 284.201C243.056 296.528 230.729 297.309 229.774 287.066C228.299 270.747 232.205 268.229 233.42 262.76C234.288 259.115 235.503 256.25 236.111 258.247ZM229.774 240.191C238.542 230.208 249.653 225.087 255.295 223.351C258.941 222.222 260.764 220.833 260.764 224.219C261.024 227.344 260.764 227.691 257.726 228.559C250.781 230.208 236.372 237.066 231.597 240.538C229.253 242.274 226.215 244.271 229.774 240.191ZM278.733 154.253C277.865 156.597 278.472 159.375 279.948 161.111C281.424 163.108 284.115 163.108 285.938 161.719C287.413 159.983 287.413 159.722 288.976 161.979C289.844 163.715 292.795 163.108 293.75 161.372C294.358 159.983 295.226 158.594 294.358 156.597C293.403 154.601 293.403 155.122 292.795 157.378C292.274 161.111 288.628 160.243 288.368 155.729C288.368 151.389 287.413 153.733 286.198 156.597C284.115 160.851 281.163 159.983 281.163 156.25C281.163 153.125 280.208 150.521 278.733 154.253ZM265.799 214.236C266.753 224.566 269.705 243.663 269.705 250.26C270.052 257.118 270.92 255.122 272.743 251.389C274.566 247.656 274.219 243.663 273.958 238.194C273.351 232.552 273.003 223.09 271.788 210.243C274.219 208.507 276.302 205.642 277.257 203.993C279.601 199.653 280.208 200 281.163 203.385C282.899 210.243 290.104 214.844 299.74 208.247C308.767 202.257 304.861 189.67 300.955 175.955C304.253 176.562 305.469 173.958 303.299 170.573C302.431 168.576 300.608 166.84 299.132 165.104C297.656 163.368 296.094 161.979 294.618 163.715C293.403 165.451 291.927 166.84 291.059 167.969C290.104 169.097 290.104 170.226 291.319 173.09C294.965 181.076 297.309 189.67 297.917 194.531C298.872 199.132 297.049 200.26 293.75 200.26C290.451 200.26 285.938 199.392 284.115 192.535C282.292 185.677 281.424 182.552 281.771 177.951C282.031 173.437 282.639 170.226 279.34 165.712C275.694 161.111 275.434 161.979 274.566 164.236C273.958 166.84 272.743 170.573 273.958 174.826C275.434 181.076 276.302 186.545 277.257 190.278C277.865 192.795 275.087 198.264 271.267 201.128C270.313 192.535 268.837 181.076 268.229 171.962C273.351 170.226 270.66 163.715 266.406 156.597C263.455 151.128 262.24 153.385 260.156 156.858C257.986 160.243 259.549 161.719 261.024 164.583C259.809 166.84 261.892 170.226 262.847 176.562C263.108 180.556 264.063 191.927 264.931 201.997C260.764 201.997 258.333 199.392 256.858 196.007C253.559 188.802 254.427 182.292 255.903 177.951C257.465 173.698 258.941 167.101 256.25 165.451C253.819 163.715 250.521 165.712 248.438 168.837C244.792 173.958 241.493 181.424 241.233 189.149C240.885 192.274 240.017 198.264 238.542 200.521C237.326 202.865 235.243 203.125 233.073 199.653C229.514 194.271 228.299 180.556 228.646 173.437C228.646 169.965 227.691 169.444 226.476 173.437C225.434 177.083 225 180.816 225 184.375C225 194.444 227.951 203.646 230.382 208.247C233.681 214.497 237.934 213.108 240.885 207.986C245.399 200.26 243.576 193.403 247.83 181.944C250.26 174.826 251.128 180.295 250.26 184.549C248.09 196.007 248.698 214.497 265.799 214.236ZM240.017 169.444C243.056 161.372 243.316 154.253 239.757 156.858C236.719 159.115 234.896 156.858 237.326 154.253C240.278 150.521 244.184 149.392 245.139 155.729C245.399 160.59 241.84 166.58 240.017 169.444Z" fill="white"/>
</g>
<defs>
<clipPath id="clip0_0_1">
<rect width="900" height="600" fill="white"/>
</clipPath>
</defs>
</svg>
